<svg width="200" height="200" viewBox="0 0 200 200" fill="none" xmlns="http://www.w3.org/2000/svg">
<path d="M100 0C155.228 0 200 44.7715 200 100C200 155.228 155.228 200 100 200C44.7715 200 0 155.228 0 100C0 44.7715 44.7715 0 100 0ZM100.5 34C96.4568 34 93.2072 36.7184 90.7549 40.1758C88.2473 43.7111 86.1115 48.6324 84.3682 54.4434C83.3173 57.9463 82.3914 61.8349 81.6094 66.0342C81.4136 65.1351 81.2103 64.262 80.999 63.417C79.8362 58.7659 78.4042 54.7886 76.6982 51.9023C75.111 49.217 72.6913 46.5 69.25 46.5C65.8087 46.5 63.389 49.217 61.8018 51.9023C60.0958 54.7886 58.6638 58.7659 57.501 63.417C56.3388 68.0657 55.405 73.557 54.7598 79.6221C54.2998 78.8819 53.8032 78.2027 53.2686 77.5996C51.8199 75.9657 49.8354 74.625 47.375 74.625C44.9146 74.625 42.9301 75.9657 41.4814 77.5996C40.0297 79.237 38.8586 81.4348 37.9365 83.8936C36.0841 88.8334 35 95.4569 35 102.625C35 109.793 36.0841 116.417 37.9365 121.356C38.8586 123.815 40.0297 126.013 41.4814 127.65C42.9301 129.284 44.9146 130.625 47.375 130.625C49.8354 130.625 51.8199 129.284 53.2686 127.65C54.0596 126.758 54.7662 125.699 55.3955 124.522C55.9684 128.569 56.6771 132.288 57.501 135.583C58.6638 140.234 60.0958 144.211 61.8018 147.098C63.389 149.783 65.8087 152.5 69.25 152.5C72.6913 152.5 75.111 149.783 76.6982 147.098C78.4042 144.211 79.8362 140.234 80.999 135.583C81.2104 134.738 81.4135 133.864 81.6094 132.965C82.3914 137.164 83.3172 141.053 84.3682 144.557C86.1115 150.368 88.2473 155.289 90.7549 158.824C93.2072 162.282 96.4568 165 100.5 165C104.543 165 107.793 162.282 110.245 158.824C112.753 155.289 114.889 150.368 116.632 144.557C117.683 141.054 118.608 137.164 119.39 132.965C119.586 133.864 119.79 134.738 120.001 135.583C121.164 140.234 122.596 144.211 124.302 147.098C125.889 149.783 128.309 152.5 131.75 152.5C135.191 152.5 137.611 149.783 139.198 147.098C140.904 144.211 142.336 140.234 143.499 135.583C144.323 132.288 145.031 128.569 145.604 124.522C146.233 125.699 146.94 126.758 147.731 127.65C149.18 129.284 151.165 130.625 153.625 130.625C156.085 130.625 158.07 129.284 159.519 127.65C160.97 126.013 162.141 123.815 163.063 121.356C164.916 116.417 166 109.793 166 102.625C166 95.4569 164.916 88.8334 163.063 83.8936C162.141 81.4348 160.97 79.237 159.519 77.5996C158.07 75.9657 156.085 74.625 153.625 74.625C151.165 74.625 149.18 75.9657 147.731 77.5996C147.197 78.2028 146.699 78.8817 146.239 79.6221C145.594 73.557 144.661 68.0656 143.499 63.417C142.336 58.7659 140.904 54.7886 139.198 51.9023C137.611 49.217 135.191 46.5 131.75 46.5C128.309 46.5 125.889 49.217 124.302 51.9023C122.596 54.7886 121.164 58.7659 120.001 63.417C119.79 64.2621 119.585 65.135 119.39 66.0342C118.608 61.835 117.683 57.9462 116.632 54.4434C114.889 48.6324 112.753 43.7111 110.245 40.1758C107.793 36.7184 104.543 34 100.5 34ZM100.5 40C101.634 40 103.317 40.7796 105.352 43.6475C107.33 46.4374 109.235 50.669 110.885 56.168C114.173 67.128 116.25 82.449 116.25 99.5C116.25 116.551 114.173 131.872 110.885 142.832C109.235 148.331 107.33 152.563 105.352 155.353C103.317 158.22 101.634 159 100.5 159C99.3656 159 97.6825 158.22 95.6484 155.353C93.6697 152.563 91.7649 148.331 90.1152 142.832C86.8272 131.872 84.75 116.551 84.75 99.5C84.75 82.449 86.8272 67.128 90.1152 56.168C91.7649 50.669 93.6697 46.4374 95.6484 43.6475C97.6825 40.7796 99.3656 40 100.5 40ZM69.25 52.5C69.2604 52.5 70.1295 52.5812 71.5332 54.9561C72.8181 57.13 74.0795 60.4753 75.1787 64.8721C77.3657 73.62 78.75 85.8643 78.75 99.5C78.75 113.136 77.3657 125.38 75.1787 134.128C74.0795 138.525 72.8181 141.87 71.5332 144.044C70.1295 146.419 69.2604 146.5 69.25 146.5C69.2396 146.5 68.3705 146.419 66.9668 144.044C65.6819 141.87 64.4205 138.525 63.3213 134.128C61.1343 125.38 59.75 113.136 59.75 99.5C59.75 85.8643 61.1343 73.62 63.3213 64.8721C64.4205 60.4753 65.6819 57.13 66.9668 54.9561C68.3705 52.5812 69.2396 52.5 69.25 52.5ZM131.75 52.5C131.76 52.5 132.63 52.5812 134.033 54.9561C135.318 57.13 136.58 60.4753 137.679 64.8721C139.866 73.62 141.25 85.8643 141.25 99.5C141.25 113.136 139.866 125.38 137.679 134.128C136.58 138.525 135.318 141.87 134.033 144.044C132.63 146.419 131.76 146.5 131.75 146.5C131.74 146.5 130.87 146.419 129.467 144.044C128.182 141.87 126.92 138.525 125.821 134.128C123.634 125.38 122.25 113.136 122.25 99.5C122.25 85.8643 123.634 73.62 125.821 64.8721C126.92 60.4753 128.182 57.13 129.467 54.9561C130.87 52.5812 131.74 52.5 131.75 52.5ZM47.375 80.625C47.5034 80.625 47.9847 80.6839 48.7793 81.5801C49.5707 82.4728 50.4209 83.9358 51.1953 86.001C52.7359 90.1093 53.75 95.9861 53.75 102.625C53.75 109.264 52.7359 115.141 51.1953 119.249C50.4209 121.314 49.5707 122.777 48.7793 123.67C47.9847 124.566 47.5034 124.625 47.375 124.625C47.2466 124.625 46.7653 124.566 45.9707 123.67C45.1793 122.777 44.3291 121.314 43.5547 119.249C42.0141 115.141 41 109.264 41 102.625C41 95.9861 42.0141 90.1093 43.5547 86.001C44.3291 83.9358 45.1793 82.4728 45.9707 81.5801C46.7653 80.6839 47.2466 80.625 47.375 80.625ZM153.625 80.625C153.753 80.625 154.235 80.6839 155.029 81.5801C155.821 82.4728 156.671 83.9358 157.445 86.001C158.986 90.1093 160 95.9861 160 102.625C160 109.264 158.986 115.141 157.445 119.249C156.671 121.314 155.821 122.777 155.029 123.67C154.235 124.566 153.753 124.625 153.625 124.625C153.497 124.625 153.015 124.566 152.221 123.67C151.429 122.777 150.579 121.314 149.805 119.249C148.264 115.141 147.25 109.264 147.25 102.625C147.25 95.9861 148.264 90.1093 149.805 86.001C150.579 83.9358 151.429 82.4728 152.221 81.5801C153.015 80.6839 153.497 80.625 153.625 80.625Z" fill="black"/>
</svg>
